[x11grab @ 0x5582f054e000] Stream #0: not enough frames to estimate rate; consider increasing probesize
Input #0, x11grab, from ':99.0+0,0':
  Duration: N/A, start: 1783949638.905791, bitrate: 983520 kb/s
  Stream #0:0: Video: rawvideo (BGR[0] / 0x524742), bgr0, 1366x900, 983520 kb/s, 25 fps, 1000k tbr, 1000k tbn
Stream mapping:
  Stream #0:0 -> #0:0 (rawvideo (native) -> h264 (libx264))
Press [q] to stop, [?] for help
[libx264 @ 0x5582f0556d40] using cpu capabilities: MMX2 SSE2Fast SSSE3 SSE4.2 AVX FMA3 BMI2 AVX2
[libx264 @ 0x5582f0556d40] profile High, level 3.2, 4:2:0, 8-bit
[libx264 @ 0x5582f0556d40] 264 - core 164 r3108 31e19f9 - H.264/MPEG-4 AVC codec - Copyleft 2003-2023 - http://www.videolan.org/x264.html - options: cabac=1 ref=1 deblock=1:0:0 analyse=0x3:0x113 me=hex subme=2 psy=1 psy_rd=1.00:0.00 mixed_ref=0 me_range=16 chroma_me=1 trellis=0 8x8dct=1 cqm=0 deadzone=21,11 fast_pskip=1 chroma_qp_offset=0 threads=3 lookahead_threads=1 sliced_threads=0 nr=0 decimate=1 interlaced=0 bluray_compat=0 constrained_intra=0 bframes=3 b_pyramid=2 b_adapt=1 b_bias=0 direct=1 weightb=1 open_gop=0 weightp=1 keyint=250 keyint_min=25 scenecut=40 intra_refresh=0 rc_lookahead=10 rc=crf mbtree=1 crf=23.0 qcomp=0.60 qpmin=0 qpmax=69 qpstep=4 ip_ratio=1.40 aq=1:1.00
Output #0, mp4, to '/home/runner/work/Auto_Browser/Auto_Browser/recordings/oncc/latest.mp4':
  Metadata:
    encoder         : Lavf60.16.100
  Stream #0:0: Video: h264 (avc1 / 0x31637661), yuv420p(tv, progressive), 1366x900, q=2-31, 25 fps, 12800 tbn
    Metadata:
      encoder         : Lavc60.31.102 libx264
    Side data:
      cpb: bitrate max/min/avg: 0/0/0 buffer size: 0 vbv_delay: N/A
frame=    0 fps=0.0 q=0.0 size=       0kB time=N/A bitrate=N/A speed=N/A    frame=    0 fps=0.0 q=0.0 size=       0kB time=N/A bitrate=N/A speed=N/A    frame=   11 fps= 11 q=28.0 size=       0kB time=00:00:00.36 bitrate=   1.1kbits/s speed=0.346x    frame=   25 fps= 16 q=28.0 size=       0kB time=00:00:00.88 bitrate=   0.4kbits/s speed=0.564x    frame=   37 fps= 18 q=28.0 size=       0kB time=00:00:01.40 bitrate=   0.3kbits/s speed=0.673x    frame=   51 fps= 20 q=28.0 size=       0kB time=00:00:01.92 bitrate=   0.2kbits/s speed=0.739x    frame=   63 fps= 20 q=28.0 size=       0kB time=00:00:02.44 bitrate=   0.2kbits/s speed=0.782x    frame=   77 fps= 21 q=28.0 size=       0kB time=00:00:02.96 bitrate=   0.1kbits/s speed=0.813x    frame=   89 fps= 21 q=28.0 size=     256kB time=00:00:03.48 bitrate= 602.7kbits/s speed=0.836x    frame=  102 fps= 22 q=28.0 size=     256kB time=00:00:04.00 bitrate= 524.4kbits/s speed=0.854x    frame=  115 fps= 22 q=28.0 size=     256kB time=00:00:04.52 bitrate= 464.1kbits/s speed=0.869x    frame=  128 fps= 22 q=28.0 size=     256kB time=00:00:05.04 bitrate= 416.2kbits/s speed=0.881x    frame=  142 fps= 23 q=28.0 size=     256kB time=00:00:05.56 bitrate= 377.3kbits/s speed=0.891x    frame=  154 fps= 23 q=28.0 size=     256kB time=00:00:06.08 bitrate= 345.0kbits/s speed=0.899x    frame=  168 fps= 23 q=28.0 size=     256kB time=00:00:06.60 bitrate= 317.8kbits/s speed=0.906x    frame=  180 fps= 23 q=28.0 size=     256kB time=00:00:07.12 bitrate= 294.6kbits/s speed=0.913x    frame=  194 fps= 23 q=28.0 size=     256kB time=00:00:07.64 bitrate= 274.5kbits/s speed=0.918x    frame=  206 fps= 23 q=28.0 size=     512kB time=00:00:08.16 bitrate= 514.1kbits/s speed=0.923x    frame=  219 fps= 23 q=28.0 size=     512kB time=00:00:08.68 bitrate= 483.3kbits/s speed=0.927x    frame=  233 fps= 24 q=28.0 size=     512kB time=00:00:09.20 bitrate= 455.9kbits/s speed=0.931x    frame=  245 fps= 24 q=28.0 size=     512kB time=00:00:09.72 bitrate= 431.6kbits/s speed=0.934x    frame=  259 fps= 24 q=28.0 size=     512kB time=00:00:10.24 bitrate= 409.6kbits/s speed=0.938x    frame=  272 fps= 24 q=28.0 size=     512kB time=00:00:10.76 bitrate= 389.8kbits/s speed=0.941x    frame=  284 fps= 24 q=28.0 size=     768kB time=00:00:11.28 bitrate= 557.8kbits/s speed=0.943x    frame=  297 fps= 24 q=28.0 size=     768kB time=00:00:11.80 bitrate= 533.2kbits/s speed=0.946x    frame=  310 fps= 24 q=28.0 size=     768kB time=00:00:12.32 bitrate= 510.7kbits/s speed=0.948x    frame=  323 fps= 24 q=28.0 size=     768kB time=00:00:12.84 bitrate= 490.0kbits/s speed=0.95x    frame=  336 fps= 24 q=28.0 size=     768kB time=00:00:13.36 bitrate= 470.9kbits/s speed=0.952x    frame=  350 fps= 24 q=28.0 size=     768kB time=00:00:13.88 bitrate= 453.3kbits/s speed=0.953x    frame=  363 fps= 24 q=28.0 size=     768kB time=00:00:14.40 bitrate= 436.9kbits/s speed=0.955x    frame=  376 fps= 24 q=28.0 size=     768kB time=00:00:14.92 bitrate= 421.7kbits/s speed=0.956x    frame=  388 fps= 24 q=28.0 size=    1024kB time=00:00:15.44 bitrate= 543.3kbits/s speed=0.958x    frame=  402 fps= 24 q=28.0 size=    1024kB time=00:00:15.96 bitrate= 525.6kbits/s speed=0.959x    frame=  414 fps= 24 q=28.0 size=    1024kB time=00:00:16.48 bitrate= 509.0kbits/s speed=0.96x    frame=  428 fps= 24 q=28.0 size=    1024kB time=00:00:17.00 bitrate= 493.5kbits/s speed=0.962x    frame=  440 fps= 24 q=28.0 size=    1024kB time=00:00:17.52 bitrate= 478.8kbits/s speed=0.963x    frame=  454 fps= 24 q=28.0 size=    1024kB time=00:00:18.04 bitrate= 465.0kbits/s speed=0.964x    frame=  466 fps= 24 q=28.0 size=    1024kB time=00:00:18.56 bitrate= 452.0kbits/s speed=0.965x    frame=  479 fps= 24 q=28.0 size=    1024kB time=00:00:19.08 bitrate= 439.7kbits/s speed=0.966x    frame=  493 fps= 24 q=28.0 size=    1280kB time=00:00:19.60 bitrate= 535.0kbits/s speed=0.966x    frame=  505 fps= 24 q=28.0 size=    1280kB time=00:00:20.12 bitrate= 521.2kbits/s speed=0.967x    frame=  519 fps= 24 q=28.0 size=    1280kB time=00:00:20.64 bitrate= 508.0kbits/s speed=0.968x    frame=  531 fps= 24 q=28.0 size=    1280kB time=00:00:21.16 bitrate= 495.6kbits/s speed=0.969x    frame=  545 fps= 24 q=28.0 size=    1280kB time=00:00:21.68 bitrate= 483.7kbits/s speed=0.97x    frame=  557 fps= 24 q=28.0 size=    1280kB time=00:00:22.20 bitrate= 472.3kbits/s speed=0.97x    frame=  571 fps= 24 q=28.0 size=    1280kB time=00:00:22.72 bitrate= 461.5kbits/s speed=0.971x    frame=  583 fps= 24 q=28.0 size=    1536kB time=00:00:23.24 bitrate= 541.4kbits/s speed=0.972x    frame=  597 fps= 24 q=28.0 size=    1536kB time=00:00:23.76 bitrate= 529.6kbits/s speed=0.972x    frame=  609 fps= 24 q=28.0 size=    1536kB time=00:00:24.28 bitrate= 518.3kbits/s speed=0.973x    frame=  623 fps= 24 q=28.0 size=    1536kB time=00:00:24.80 bitrate= 507.4kbits/s speed=0.973x    frame=  636 fps= 24 q=28.0 size=    1536kB time=00:00:25.32 bitrate= 497.0kbits/s speed=0.974x    frame=  649 fps= 24 q=28.0 size=    1536kB time=00:00:25.84 bitrate= 487.0kbits/s speed=0.974x    frame=  661 fps= 24 q=28.0 size=    1536kB time=00:00:26.36 bitrate= 477.4kbits/s speed=0.975x    frame=  675 fps= 24 q=28.0 size=    1536kB time=00:00:26.88 bitrate= 468.1kbits/s speed=0.975x    frame=  687 fps= 24 q=28.0 size=    1792kB time=00:00:27.40 bitrate= 535.8kbits/s speed=0.976x    frame=  701 fps= 25 q=28.0 size=    1792kB time=00:00:27.92 bitrate= 525.8kbits/s speed=0.976x    frame=  713 fps= 24 q=28.0 size=    1792kB time=00:00:28.44 bitrate= 516.2kbits/s speed=0.977x    frame=  726 fps= 24 q=28.0 size=    1792kB time=00:00:28.96 bitrate= 506.9kbits/s speed=0.977x    frame=  739 fps= 25 q=28.0 size=    1792kB time=00:00:29.48 bitrate= 498.0kbits/s speed=0.977x    frame=  753 fps= 25 q=28.0 size=    1792kB time=00:00:30.00 bitrate= 489.3kbits/s speed=0.978x    frame=  766 fps= 25 q=28.0 size=    2048kB time=00:00:30.52 bitrate= 549.7kbits/s speed=0.978x    frame=  778 fps= 25 q=28.0 size=    2048kB time=00:00:31.04 bitrate= 540.5kbits/s speed=0.979x    frame=  791 fps= 25 q=28.0 size=    2048kB time=00:00:31.56 bitrate= 531.6kbits/s speed=0.979x    frame=  805 fps= 25 q=28.0 size=    2048kB time=00:00:32.08 bitrate= 523.0kbits/s speed=0.979x    frame=  817 fps= 25 q=28.0 size=    2048kB time=00:00:32.60 bitrate= 514.7kbits/s speed=0.98x    frame=  831 fps= 25 q=28.0 size=    2048kB time=00:00:33.12 bitrate= 506.6kbits/s speed=0.98x    frame=  844 fps= 25 q=28.0 size=    2048kB time=00:00:33.64 bitrate= 498.7kbits/s speed=0.98x    frame=  856 fps= 25 q=28.0 size=    2048kB time=00:00:34.16 bitrate= 491.1kbits/s speed=0.981x    frame=  869 fps= 25 q=28.0 size=    2048kB time=00:00:34.68 bitrate= 483.8kbits/s speed=0.981x    frame=  883 fps= 25 q=28.0 size=    2304kB time=00:00:35.20 bitrate= 536.2kbits/s speed=0.981x    frame=  895 fps= 25 q=28.0 size=    2304kB time=00:00:35.72 bitrate= 528.4kbits/s speed=0.981x    frame=  909 fps= 25 q=28.0 size=    2304kB time=00:00:36.24 bitrate= 520.8kbits/s speed=0.982x    frame=  921 fps= 25 q=28.0 size=    2304kB time=00:00:36.76 bitrate= 513.5kbits/s speed=0.982x    frame=  935 fps= 25 q=28.0 size=    2304kB time=00:00:37.28 bitrate= 506.3kbits/s speed=0.982x    frame=  947 fps= 25 q=28.0 size=    2304kB time=00:00:37.80 bitrate= 499.3kbits/s speed=0.982x    frame=  961 fps= 25 q=28.0 size=    2304kB time=00:00:38.32 bitrate= 492.6kbits/s speed=0.983x    frame=  973 fps= 25 q=28.0 size=    2304kB time=00:00:38.84 bitrate= 486.0kbits/s speed=0.983x    frame=  986 fps= 25 q=28.0 size=    2304kB time=00:00:39.36 bitrate= 479.5kbits/s speed=0.983x    frame= 1000 fps= 25 q=28.0 size=    2560kB time=00:00:39.88 bitrate= 525.9kbits/s speed=0.983x    frame= 1012 fps= 25 q=28.0 size=    2560kB time=00:00:40.40 bitrate= 519.1kbits/s speed=0.983x    frame= 1026 fps= 25 q=28.0 size=    2560kB time=00:00:40.92 bitrate= 512.5kbits/s speed=0.984x    frame= 1038 fps= 25 q=28.0 size=    2560kB time=00:00:41.44 bitrate= 506.1kbits/s speed=0.984x    frame= 1052 fps= 25 q=28.0 size=    2560kB time=00:00:41.96 bitrate= 499.8kbits/s speed=0.984x    frame= 1064 fps= 25 q=28.0 size=    2560kB time=00:00:42.48 bitrate= 493.7kbits/s speed=0.984x    frame= 1077 fps= 25 q=28.0 size=    2560kB time=00:00:43.00 bitrate= 487.7kbits/s speed=0.984x    frame= 1091 fps= 25 q=28.0 size=    2816kB time=00:00:43.52 bitrate= 530.1kbits/s speed=0.985x    frame= 1104 fps= 25 q=28.0 size=    2816kB time=00:00:44.04 bitrate= 523.8kbits/s speed=0.985x    frame= 1117 fps= 25 q=28.0 size=    2816kB time=00:00:44.56 bitrate= 517.7kbits/s speed=0.985x    frame= 1129 fps= 25 q=28.0 size=    2816kB time=00:00:45.08 bitrate= 511.7kbits/s speed=0.985x    frame= 1142 fps= 25 q=28.0 size=    2816kB time=00:00:45.60 bitrate= 505.9kbits/s speed=0.985x    frame= 1155 fps= 25 q=28.0 size=    2816kB time=00:00:46.12 bitrate= 500.2kbits/s speed=0.985x    frame= 1168 fps= 25 q=28.0 size=    2816kB time=00:00:46.64 bitrate= 494.6kbits/s speed=0.986x    frame= 1181 fps= 25 q=28.0 size=    2816kB time=00:00:47.16 bitrate= 489.2kbits/s speed=0.986x    frame= 1194 fps= 25 q=28.0 size=    2816kB time=00:00:47.68 bitrate= 483.8kbits/s speed=0.986x    frame= 1208 fps= 25 q=28.0 size=    3072kB time=00:00:48.20 bitrate= 522.1kbits/s speed=0.986x    frame= 1220 fps= 25 q=28.0 size=    3072kB time=00:00:48.72 bitrate= 516.5kbits/s speed=0.986x    frame= 1233 fps= 25 q=28.0 size=    3072kB time=00:00:49.24 bitrate= 511.1kbits/s speed=0.986x    frame= 1246 fps= 25 q=28.0 size=    3072kB time=00:00:49.76 bitrate= 505.8kbits/s speed=0.987x    frame= 1260 fps= 25 q=28.0 size=    3072kB time=00:00:50.28 bitrate= 500.5kbits/s speed=0.987x    frame= 1272 fps= 25 q=28.0 size=    3072kB time=00:00:50.80 bitrate= 495.4kbits/s speed=0.987x    frame= 1285 fps= 25 q=28.0 size=    3328kB time=00:00:51.32 bitrate= 531.2kbits/s speed=0.987x    frame= 1298 fps= 25 q=28.0 size=    3328kB time=00:00:51.84 bitrate= 525.9kbits/s speed=0.987x    frame= 1312 fps= 25 q=28.0 size=    3328kB time=00:00:52.36 bitrate= 520.7kbits/s speed=0.987x    frame= 1324 fps= 25 q=28.0 size=    3328kB time=00:00:52.88 bitrate= 515.6kbits/s speed=0.987x    frame= 1337 fps= 25 q=28.0 size=    3328kB time=00:00:53.40 bitrate= 510.5kbits/s speed=0.987x    frame= 1350 fps= 25 q=28.0 size=    3328kB time=00:00:53.92 bitrate= 505.6kbits/s speed=0.988x    frame= 1363 fps= 25 q=28.0 size=    3328kB time=00:00:54.44 bitrate= 500.8kbits/s speed=0.988x    frame= 1376 fps= 25 q=28.0 size=    3584kB time=00:00:54.96 bitrate= 534.2kbits/s speed=0.988x    frame= 1390 fps= 25 q=28.0 size=    3584kB time=00:00:55.48 bitrate= 529.2kbits/s speed=0.988x    frame= 1402 fps= 25 q=28.0 size=    3584kB time=00:00:56.00 bitrate= 524.3kbits/s speed=0.988x    frame= 1415 fps= 25 q=28.0 size=    3584kB time=00:00:56.52 bitrate= 519.5kbits/s speed=0.988x    frame= 1428 fps= 25 q=28.0 size=    3584kB time=00:00:57.04 bitrate= 514.7kbits/s speed=0.988x    frame= 1441 fps= 25 q=28.0 size=    3584kB time=00:00:57.56 bitrate= 510.1kbits/s speed=0.988x    frame= 1455 fps= 25 q=28.0 size=    3584kB time=00:00:58.08 bitrate= 505.5kbits/s speed=0.988x    frame= 1468 fps= 25 q=28.0 size=    3584kB time=00:00:58.60 bitrate= 501.0kbits/s speed=0.989x    frame= 1480 fps= 25 q=28.0 size=    3840kB time=00:00:59.12 bitrate= 532.1kbits/s speed=0.989x    frame= 1493 fps= 25 q=28.0 size=    3840kB time=00:00:59.64 bitrate= 527.5kbits/s speed=0.989x    frame= 1506 fps= 25 q=28.0 size=    3840kB time=00:01:00.16 bitrate= 522.9kbits/s speed=0.989x    [mp4 @ 0x5582f0556200] Starting second pass: moving the moov atom to the beginning of the file
[out#0/mp4 @ 0x5582f0555580] video:4055kB audio:0kB subtitle:0kB other streams:0kB global headers:0kB muxing overhead: 0.460589%
frame= 1525 fps= 25 q=-1.0 Lsize=    4074kB time=00:01:00.88 bitrate= 548.2kbits/s speed=0.997x    
[libx264 @ 0x5582f0556d40] frame I:7     Avg QP:14.48  size: 85986
[libx264 @ 0x5582f0556d40] frame P:406   Avg QP:24.93  size:  6940
[libx264 @ 0x5582f0556d40] frame B:1112  Avg QP:27.18  size:   659
[libx264 @ 0x5582f0556d40] consecutive B-frames:  0.8%  5.2%  2.2% 91.8%
[libx264 @ 0x5582f0556d40] mb I  I16..4: 61.5%  7.2% 31.4%
[libx264 @ 0x5582f0556d40] mb P  I16..4:  0.8%  0.6%  0.6%  P16..4:  6.1%  3.8%  2.5%  0.0%  0.0%    skip:85.6%
[libx264 @ 0x5582f0556d40] mb B  I16..4:  0.1%  0.0%  0.0%  B16..8:  2.9%  0.9%  0.1%  direct: 0.3%  skip:95.6%  L0:36.0% L1:45.6% BI:18.5%
[libx264 @ 0x5582f0556d40] 8x8 transform intra:19.9% inter:22.1%
[libx264 @ 0x5582f0556d40] coded y,uvDC,uvAC intra: 39.5% 50.4% 28.2% inter: 1.5% 1.6% 0.2%
[libx264 @ 0x5582f0556d40] i16 v,h,dc,p: 60% 32%  5%  3%
[libx264 @ 0x5582f0556d40] i8 v,h,dc,ddl,ddr,vr,hd,vl,hu: 19% 25% 25%  7% 10%  4%  3%  2%  4%
[libx264 @ 0x5582f0556d40] i4 v,h,dc,ddl,ddr,vr,hd,vl,hu: 22% 29% 17%  6% 12%  4%  4%  3%  3%
[libx264 @ 0x5582f0556d40] i8c dc,h,v,p: 50% 24% 20%  6%
[libx264 @ 0x5582f0556d40] Weighted P-Frames: Y:0.0% UV:0.0%
[libx264 @ 0x5582f0556d40] kb/s:544.53
